<?xml version="1.0" encoding="utf-8"?>
<!-- Generator: Adobe Illustrator 18.1.1, SVG Export Plug-In . SVG Version: 6.00 Build 0)  -->
<svg version="1.1" id="Layer_1" xmlns="http://www.w3.org/2000/svg" xmlns:xlink="http://www.w3.org/1999/xlink" x="0px" y="0px"
	 viewBox="0 0 64.1 52.4" enable-background="new 0 0 64.1 52.4" xml:space="preserve">
<g>
	<polygon fill="#617E39" points="22.8,31.4 22.8,28.8 22.8,28.8 22.8,17.8 22.8,7 22.8,4.5 15.1,9 15,26.9 22.8,31.4 22.9,31.3 	"/>
	<polygon fill="#F3F7F0" points="46.1,26.9 46.1,17.9 43.9,19.2 34.5,24.6 25,30.1 22.9,31.3 22.8,31.4 30.6,35.8 	"/>
	<path fill="#F3F7F0" d="M11.4,40.3c-3.4,0-5.8,2.5-5.8,6.1c0,3.6,2.4,6,5.9,6c1.9,0,3.4-0.6,4.7-1.8l0.3-0.3l-1.5-1.9l-0.4,0.3
		c-0.9,0.8-1.9,1.2-3.1,1.2c-1.7,0-2.9-1-3.2-2.6h8.5l0-0.4c0-0.2,0-0.5,0-0.7C16.9,42.8,14.6,40.3,11.4,40.3z M11.4,42.8
		c1.4,0,2.5,0.9,2.8,2.4H8.5C8.8,43.6,9.9,42.8,11.4,42.8z"/>
	<path fill="#F3F7F0" d="M24,40.3c-3.3,0-6,2.7-6,6c0,3.5,2.5,6.1,5.8,6.1c1.3,0,2.5-0.4,3.4-1.1v0.9H30v-5.7
		C30,41.9,26.8,40.3,24,40.3z M27.4,46.4c0,2-1.4,3.5-3.3,3.5c-2,0-3.4-1.5-3.4-3.5c0-2,1.4-3.5,3.4-3.5
		C26,42.8,27.4,44.3,27.4,46.4z"/>
	<path fill="#F3F7F0" d="M37,40.3c-3.2,0-5.4,2-5.4,4.9v7h2.6v-6.5c0-1.7,1.2-2.8,2.8-2.8c1.7,0,2.6,1,2.6,2.8v6.6h2.6v-7.1
		C42.3,42.2,40.2,40.3,37,40.3z"/>
	<polygon fill="#F3F7F0" points="54.1,40.5 50.7,40.5 46.6,44.9 46.5,44.9 46.5,36.6 43.9,36.6 43.9,52.2 46.5,52.2 46.5,47.4 
		46.5,47.4 50.7,52.2 54.1,52.2 48.8,46.1 	"/>
	<rect x="54.8" y="40.5" fill="#F3F7F0" width="2.6" height="11.7"/>
	<rect x="54.8" y="36.6" fill="#F3F7F0" width="2.6" height="2.5"/>
	<path fill="#F3F7F0" d="M5.1,49.8l-0.5,0.1c-0.1,0-0.2,0-0.3,0c-1.1,0-1.7-0.7-1.7-1.9V36.6H0V48c0,2.9,1.5,4.4,4.2,4.4
		c0.2,0,0.4,0,0.6-0.1l0.4,0V49.8z"/>
	<path fill="#F3F7F0" d="M64.1,49.8l-0.5,0.1c-0.1,0-0.2,0-0.3,0c-1.1,0-1.7-0.7-1.7-1.9V43h2.5v-2.5h-2.5v-3.9H59V48
		c0,2.9,1.5,4.4,4.2,4.4c0.2,0,0.4,0,0.6-0.1l0.3,0V49.8z"/>
	<polygon fill="#94C83D" points="25,5.7 34.5,11.2 43.9,16.7 46.1,17.9 46.1,9 30.6,0 22.8,4.5 	"/>
</g>
</svg>
